# xmcd CD database file
#
# Track frame offsets:
#	150
#	12384
#	35754
#	49763
#	67312
#	85874
#	104111
#	119789
#	145594
#	160336
#	178036
#
# Disc length: 2590 seconds
#
# Revision: 0
# Processed by: cddbd v1.5.2PL0 Copyright (c) Steve Scherf et al.
# Submitted via: CDex 1.70beta2
#
DISCID=a50a1c0b
DTITLE=Ray Bryant - Now's The Time
DYEAR=1980
DGENRE=Jazz
TTITLE0=Delauney's Dilemma
TTITLE1=Blue Monk
TTITLE2=Misty
TTITLE3=Sneaking Around
TTITLE4=Now's The Time
TTITLE5=Wheatleigh Hall
TTITLE6=A Hundred Dreams From Now
TTITLE7=Bags Groove
TTITLE8=Walkin'
TTITLE9=Take the A Train
TTITLE10=Whisper Not
EXTD=YEAR: 1980
EXTT0=
EXTT1=
EXTT2=
EXTT3=
EXTT4=
EXTT5=
EXTT6=
EXTT7=
EXTT8=
EXTT9=
EXTT10=
PLAYORDER=
